<?xml version="1.0" standalone="no"?>
<!DOCTYPE svg PUBLIC "-//W3C//DTD SVG 20010904//EN"
 "http://www.w3.org/TR/2001/REC-SVG-20010904/DTD/svg10.dtd">
<svg version="1.0" xmlns="http://www.w3.org/2000/svg"
 width="1280.000000pt" height="640.000000pt" viewBox="0 0 1280.000000 640.000000"
 preserveAspectRatio="xMidYMid meet">
<metadata>
Created by potrace 1.15, written by Peter Selinger 2001-2017
</metadata>
<g transform="translate(0.000000,640.000000) scale(0.100000,-0.100000)"
fill="#000000" stroke="none">
<path d="M6586 5373 c5 -410 3 -573 -10 -782 -8 -145 -17 -265 -18 -266 -2 -1
-374 -18 -828 -39 -1151 -51 -2992 -134 -3189 -143 l-163 -8 -167 133 c-91 74
-170 137 -175 142 -4 4 -18 79 -30 167 l-22 158 -110 12 c-60 6 -128 12 -151
12 -40 1 -43 -1 -43 -25 0 -19 -4 -25 -15 -20 -8 3 -252 196 -543 429 l-527
424 -248 -25 c-136 -15 -247 -29 -247 -33 0 -4 200 -341 445 -749 245 -408
445 -743 445 -745 0 -2 -26 -6 -58 -10 -162 -17 -284 -51 -302 -85 -6 -10 -10
-49 -10 -87 1 -115 44 -178 158 -230 28 -14 52 -26 52 -27 0 -2 -184 -120
-410 -262 -226 -142 -410 -264 -410 -271 0 -17 -14 -17 256 12 l231 25 428
170 429 171 136 -35 c223 -58 1138 -263 1280 -287 73 -12 405 -35 775 -54
1334 -68 1646 -88 1855 -115 80 -11 163 -21 184 -22 l39 -3 -97 -125 c-256
-329 -117 -212 -1471 -1232 -665 -501 -1218 -918 -1228 -928 -17 -16 -17 -17
4 -44 46 -59 162 -83 264 -55 107 29 719 372 2080 1164 l520 303 295 -54 c421
-77 609 -98 1011 -110 124 -4 242 -4 262 0 76 14 126 95 157 253 38 194 -17
374 -133 434 -80 42 -275 35 -621 -22 -98 -16 -181 -28 -182 -26 -2 2 141 101
319 219 l322 215 145 6 c195 7 447 58 858 172 86 23 640 46 1907 80 1314 34
1509 42 1635 66 341 66 808 201 962 279 80 41 134 84 154 123 17 32 15 96 -7
183 -23 92 -122 166 -324 245 -65 26 -143 66 -190 98 -228 156 -285 189 -412
234 -144 52 -409 87 -858 113 l-290 17 -1130 -52 c-621 -28 -1325 -61 -1564
-72 -239 -11 -435 -18 -436 -17 -1 2 -24 64 -52 138 -28 74 -151 399 -273 721
l-222 586 -211 37 c-117 20 -217 36 -224 36 -10 0 -11 -116 -7 -517z"/>
</g>
</svg>
